# xmcd
#
# Track frame offsets:
#	150
#	600
#	23343
#	46885
#	74138
#	99223
#	107240
#	128783
#	142401
#	153424
#	181145
#	185643
#	190062
#	211562
#	242028
#	253361
#	265866
#	288379
#	311298
#
# Disc length: 4256 seconds
#
# Revision: 0
# Processed by: cddbd v1.5.1PL2 Copyright (c) Steve Scherf et al.
# Submitted via: dBpowerAMP V4.0
#
DISCID=0c109e13
DTITLE=Åke Edwardson - Sol och skugga - CD-BOK 02/11
DYEAR=1999
DGENRE=CD-BOK
TTITLE0=02.01
TTITLE1=02.02
TTITLE2=02.03
TTITLE3=02.04
TTITLE4=02.05
TTITLE5=02.06
TTITLE6=02.07
TTITLE7=02.08
TTITLE8=02.09
TTITLE9=02.10
TTITLE10=02.11
TTITLE11=02.12
TTITLE12=02.13
TTITLE13=02.14
TTITLE14=02.15
TTITLE15=02.16
TTITLE16=02.17
TTITLE17=02.18
TTITLE18=02.09
EXTD=
EXTT0=
EXTT1=
EXTT2=
EXTT3=
EXTT4=
EXTT5=
EXTT6=
EXTT7=
EXTT8=
EXTT9=
EXTT10=
EXTT11=
EXTT12=
EXTT13=
EXTT14=
EXTT15=
EXTT16=
EXTT17=
EXTT18=
PLAYORDER=
